<?xml version="1.0" encoding="UTF-8"?>
<svg version="1.1" xmlns="http://www.w3.org/2000/svg" width="175" height="182">
<path d="M0 0 C3.52560592 1.61072094 6.88168426 3.45992685 10.25 5.375 C11.70418335 6.18529663 11.70418335 6.18529663 13.18774414 7.01196289 C20.86921204 11.30929198 28.48821576 15.71568822 36.08984375 20.15234375 C40.5563789 22.75319177 45.05038135 25.30309083 49.5546875 27.83789062 C51.50793609 28.94015492 53.45722378 30.04946964 55.40234375 31.16601562 C60.10148765 33.85624367 64.80510387 36.42574396 69.68359375 38.77734375 C81.88144416 44.82214955 81.88144416 44.82214955 84.76953125 50.4453125 C85.36274631 54.91130555 85.1096603 56.99717292 83 61 C78.46247825 65.21157257 70.40621042 71 64 71 C64 71.66 64 72.32 64 73 C64.84820312 73.26296875 65.69640625 73.5259375 66.5703125 73.796875 C72.75471053 75.96634492 78.31280611 78.38785579 83 83 C84.17860212 88.10910316 83.66313938 91.69488498 83 97 C77.06 100.3 71.12 103.6 65 107 C68.11039396 110.11039396 71.3221031 112.02764474 75.125 114.125 C81.89527027 117.89527027 81.89527027 117.89527027 83 119 C83.4140625 121.73046875 83.4140625 121.73046875 83.625 125.1875 C83.76808594 126.87939453 83.76808594 126.87939453 83.9140625 128.60546875 C82.68803455 133.15853836 80.70343509 134.11980083 76.75976562 136.4699707 C75.84904297 136.97488037 74.93832031 137.47979004 74 138 C73.04802734 138.54422607 72.09605469 139.08845215 71.11523438 139.64916992 C67.90465818 141.46191458 64.67385414 143.23372017 61.4375 145 C59.02924042 146.32319537 56.62343092 147.65078199 54.21875 148.98046875 C53.61373154 149.31499557 53.00871307 149.6495224 52.38536072 149.9941864 C46.34937577 153.34249246 40.38808891 156.81493614 34.4375 160.3125 C25.32078578 165.66954361 16.14716526 170.90370913 6.85888672 175.95800781 C5.59968279 176.66385 4.35643803 177.39880348 3.12939453 178.15917969 C-2.85444986 181.83683466 -2.85444986 181.83683466 -7 181 C-9.53067085 179.71090241 -11.85500064 178.38123119 -14.25 176.875 C-15.77304815 175.9477369 -17.29790103 175.02343383 -18.82421875 174.1015625 C-19.65228027 173.60043945 -20.4803418 173.09931641 -21.33349609 172.58300781 C-26.18523107 169.70270662 -31.12905493 166.98711107 -36.0625 164.25 C-45.55822364 158.9616724 -55.00871069 153.60341433 -64.34790039 148.04223633 C-69.07245654 145.23620561 -73.79522647 142.56025969 -78.7265625 140.1328125 C-90.80616055 134.07016842 -90.80616055 134.07016842 -93.8359375 128.81640625 C-94.54010154 124.48426663 -94.26240811 122.79663224 -92 119 C-86.37928688 114.24845479 -79.64651668 111.0618262 -73 108 C-74.55460937 107.07767578 -74.55460937 107.07767578 -76.140625 106.13671875 C-77.51048726 105.32043096 -78.88027502 104.50401813 -80.25 103.6875 C-80.93191406 103.28337891 -81.61382812 102.87925781 -82.31640625 102.46289062 C-84.22168487 101.32527281 -86.11152201 100.1652141 -88 99 C-89.18529297 98.29810547 -89.18529297 98.29810547 -90.39453125 97.58203125 C-92.78792181 95.2235807 -93.0519061 93.30736214 -93.4375 90 C-93.40234375 86.51953125 -93.40234375 86.51953125 -92 83 C-86.54601462 78.12607532 -79.594726 75.03796798 -73 72 C-74.55460937 71.07767578 -74.55460937 71.07767578 -76.140625 70.13671875 C-77.51048726 69.32043096 -78.88027502 68.50401813 -80.25 67.6875 C-80.93191406 67.28337891 -81.61382812 66.87925781 -82.31640625 66.46289062 C-83.63843091 65.67352638 -84.95476272 64.87453375 -86.26464844 64.06518555 C-87.64557503 63.21755151 -89.05318022 62.41341861 -90.46875 61.625 C-92 60 -92 60 -92.390625 56.86328125 C-92.34421875 55.69152344 -92.2978125 54.51976562 -92.25 53.3125 C-92.21390625 52.13300781 -92.1778125 50.95351563 -92.140625 49.73828125 C-92.09421875 48.83464844 -92.0478125 47.93101563 -92 47 C-91.4831665 46.71914551 -90.96633301 46.43829102 -90.43383789 46.14892578 C-81.53029825 41.30245891 -72.64402443 36.44401633 -63.9375 31.25 C-55.48209631 26.21299962 -46.88006938 21.44583904 -38.2565918 16.70410156 C-32.7343137 13.66112655 -27.2496436 10.58193408 -21.84375 7.3359375 C-20.4211084 6.48974854 -20.4211084 6.48974854 -18.96972656 5.62646484 C-17.20693132 4.57226898 -15.45296178 3.50311516 -13.70996094 2.41650391 C-8.72957902 -0.54538374 -5.7891644 -1.86624379 0 0 Z " fill="#79CDAC" transform="translate(92,1)"/>
<path d="M0 0 C7.38604596 1.14845042 15.87230867 6.10471894 21.12597656 11.33056641 C23.29146058 16.05205151 22.06968538 20.31400902 21.12597656 25.33056641 C15.18597656 28.63056641 9.24597656 31.93056641 3.12597656 35.33056641 C6.23637053 38.44096037 9.44807966 40.35821115 13.25097656 42.45556641 C20.02124683 46.22583668 20.02124683 46.22583668 21.12597656 47.33056641 C21.54003906 50.06103516 21.54003906 50.06103516 21.75097656 53.51806641 C21.8940625 55.20996094 21.8940625 55.20996094 22.04003906 56.93603516 C20.81401111 61.48910476 18.82941166 62.45036723 14.88574219 64.80053711 C13.97501953 65.30544678 13.06429687 65.81035645 12.12597656 66.33056641 C11.17400391 66.87479248 10.22203125 67.41901855 9.24121094 67.97973633 C6.03063474 69.79248099 2.7998307 71.56428657 -0.43652344 73.33056641 C-2.84478302 74.65376177 -5.25059251 75.9813484 -7.65527344 77.31103516 C-8.56280113 77.81282539 -8.56280113 77.81282539 -9.48866272 78.32475281 C-15.52464767 81.67305887 -21.48593453 85.14550255 -27.43652344 88.64306641 C-36.55323765 94.00011002 -45.72685818 99.23427554 -55.01513672 104.28857422 C-56.27434065 104.9944164 -57.51758541 105.72936988 -58.74462891 106.48974609 C-64.7284733 110.16740106 -64.7284733 110.16740106 -68.87402344 109.33056641 C-71.40469428 108.04146882 -73.72902408 106.71179759 -76.12402344 105.20556641 C-77.64707159 104.27830331 -79.17192447 103.35400023 -80.69824219 102.43212891 C-81.52630371 101.93100586 -82.35436523 101.42988281 -83.20751953 100.91357422 C-88.05925451 98.03327303 -93.00307836 95.31767748 -97.93652344 92.58056641 C-107.43224708 87.2922388 -116.88273412 81.93398074 -126.22192383 76.37280273 C-130.94647998 73.56677201 -135.6692499 70.8908261 -140.60058594 68.46337891 C-150.92603623 63.26199736 -150.92603623 63.26199736 -153.87402344 60.33056641 C-155.40805759 55.6412446 -155.15844346 52.05512896 -153.87402344 47.33056641 C-152.88402344 46.83556641 -152.88402344 46.83556641 -151.87402344 46.33056641 C-151.81206787 46.92820801 -151.7501123 47.52584961 -151.6862793 48.14160156 C-150.52165298 51.28017673 -148.81662272 51.83068655 -145.87792969 53.35400391 C-144.84345703 53.90056641 -143.80898437 54.44712891 -142.74316406 55.01025391 C-141.65197266 55.56970703 -140.56078125 56.12916016 -139.43652344 56.70556641 C-137.31166056 57.81531785 -135.18795009 58.92727878 -133.06542969 60.04150391 C-131.50598633 60.85772217 -131.50598633 60.85772217 -129.91503906 61.69042969 C-126.22378535 63.68126482 -122.64021047 65.81747093 -119.0715332 68.01904297 C-115.76462306 69.9926816 -112.34268039 71.66047232 -108.87402344 73.33056641 C-109.06738281 72.55455078 -109.26074219 71.77853516 -109.45996094 70.97900391 C-111.43406666 62.789397 -112.80949518 54.68398227 -113.87402344 46.33056641 C-109.71943342 47.60554828 -106.08991746 49.1663455 -102.31152344 51.30712891 C-101.27334473 51.89204102 -100.23516602 52.47695312 -99.16552734 53.07958984 C-97.53623291 54.00819824 -97.53623291 54.00819824 -95.87402344 54.95556641 C-94.76075684 55.58495117 -93.64749023 56.21433594 -92.50048828 56.86279297 C-89.28874886 58.6802998 -86.08101358 60.50469641 -82.87402344 62.33056641 C-81.32472169 63.20848375 -79.77526859 64.0861341 -78.22558594 64.96337891 C-69.47070558 69.93277831 -69.47070558 69.93277831 -65.87402344 72.33056641 C-66.03064453 71.35216797 -66.03064453 71.35216797 -66.19042969 70.35400391 C-66.45748953 67.47993134 -66.43124369 65.16792987 -65.87402344 62.33056641 C-64.29418945 60.74365234 -64.29418945 60.74365234 -62.12792969 59.43994141 C-61.3096167 58.93962402 -60.49130371 58.43930664 -59.64819336 57.92382812 C-58.27497925 57.13516357 -58.27497925 57.13516357 -56.87402344 56.33056641 C-55.89344971 55.76225098 -54.91287598 55.19393555 -53.90258789 54.60839844 C-50.69891467 52.78079794 -47.47768475 50.98861571 -44.24902344 49.20556641 C-41.04769053 47.42746759 -37.84667637 45.64880377 -34.64648438 43.86865234 C-32.96050917 42.93331914 -31.27176548 42.00292373 -29.578125 41.08154297 C-26.12654499 39.33100666 -26.12654499 39.33100666 -23.87402344 36.33056641 C-24.70160156 36.08564453 -25.52917969 35.84072266 -26.38183594 35.58837891 C-30.40691099 34.13863151 -34.00630058 32.25826131 -37.74902344 30.20556641 C-38.43738281 29.83302734 -39.12574219 29.46048828 -39.83496094 29.07666016 C-41.51697141 28.16557115 -43.1958278 27.24866326 -44.87402344 26.33056641 C-44.78417969 24.58447266 -44.78417969 24.58447266 -43.87402344 22.33056641 C-41.6913439 20.78758671 -39.65074202 19.5205543 -37.31152344 18.26806641 C-36.67617676 17.91591064 -36.04083008 17.56375488 -35.38623047 17.20092773 C-30.99336355 14.8095545 -26.59246186 12.9907577 -21.87402344 11.33056641 C-19.70369868 9.89066018 -19.70369868 9.89066018 -17.87402344 8.33056641 C-15.3611757 6.71976657 -13.04108269 5.39420803 -10.24902344 4.33056641 C-7.82447251 3.52075888 -7.82447251 3.52075888 -6.49902344 1.70556641 C-4.38852747 -0.08023787 -2.70376404 -0.06344573 0 0 Z " fill="#2075A2" transform="translate(153.8740234375,72.66943359375)"/>
<path d="M0 0 C6.07227825 1.7595263 11.21423571 4.71980321 16.65966797 7.84863281 C20.7060314 10.17089356 24.74178356 12.38790173 28.95703125 14.390625 C39.91962254 19.78828387 39.91962254 19.78828387 42.65625 25.390625 C43.22935577 29.80353945 42.97956618 31.99515017 41 36 C34.52147768 42.35777992 25.69481167 46.01140658 16.86987305 47.51660156 C14.12672581 48.22575831 12.82798662 49.91087244 11 52 C9.33675221 52.67515111 7.66942457 53.34026989 6 54 C4.02491187 55.11670514 2.06723748 56.26459035 0.125 57.4375 C-6.35482663 61.27475997 -6.35482663 61.27475997 -9.6875 62.625 C-13.34685064 64.14397574 -16.66446465 66.01764805 -20.08203125 68.01171875 C-22 69 -22 69 -24 69 C-24.495 70.98 -24.495 70.98 -25 73 C-23.75863281 73.36738281 -23.75863281 73.36738281 -22.4921875 73.7421875 C-18.46711244 75.19193489 -14.86772286 77.0723051 -11.125 79.125 C-10.43664062 79.49753906 -9.74828125 79.87007813 -9.0390625 80.25390625 C-7.35705202 81.16499526 -5.67819564 82.08190315 -4 83 C-5.32911619 86.98734857 -6.88831967 87.32269486 -10.546875 89.29296875 C-11.70316406 89.92396484 -12.85945313 90.55496094 -14.05078125 91.20507812 C-15.28354843 91.8664556 -16.51662259 92.52726121 -17.75 93.1875 C-22.5177326 95.76009718 -27.26865908 98.36105803 -32 101 C-32.61829681 101.34154114 -33.23659363 101.68308228 -33.87362671 102.03497314 C-35.69722979 103.05204147 -37.50408558 104.09403194 -39.30859375 105.14453125 C-40.37134521 105.75272705 -41.43409668 106.36092285 -42.52905273 106.98754883 C-45.48721926 109.3968134 -45.89898888 110.76714094 -46.3125 114.5 C-46.28276433 116.98467078 -46.28276433 116.98467078 -46 119 C-49.86656605 117.56243057 -53.31213572 115.76213543 -56.875 113.6875 C-58.10119075 112.97852332 -59.32778508 112.2702444 -60.5546875 111.5625 C-61.24401367 111.16417969 -61.93333984 110.76585937 -62.64355469 110.35546875 C-67.41616475 107.61017958 -72.20872498 104.90003479 -77 102.1875 C-77.99112793 101.62442139 -78.98225586 101.06134277 -80.00341797 100.48120117 C-84.61750219 97.86895948 -89.22188872 95.30027317 -94 93 C-93.77280273 94.12027588 -93.77280273 94.12027588 -93.54101562 95.26318359 C-92.85868163 98.63338867 -92.17930409 102.00418297 -91.5 105.375 C-91.26152344 106.550625 -91.02304688 107.72625 -90.77734375 108.9375 C-90.55175781 110.05898437 -90.32617188 111.18046875 -90.09375 112.3359375 C-89.88427734 113.37282715 -89.67480469 114.4097168 -89.45898438 115.47802734 C-89 118 -89 118 -89 120 C-92.40997842 118.70009688 -95.56585451 117.21717367 -98.75 115.4375 C-102.92096618 113.12907623 -107.11666748 110.87907184 -111.33886719 108.66650391 C-131.4389325 98.12213499 -131.4389325 98.12213499 -133 95 C-129.6883681 91.28695817 -126.0522696 89.11100161 -121.75 86.75 C-121.1003125 86.38648437 -120.450625 86.02296875 -119.78125 85.6484375 C-118.19081574 84.75966541 -116.59585552 83.87900064 -115 83 C-116.55460937 82.07767578 -116.55460937 82.07767578 -118.140625 81.13671875 C-119.51048726 80.32043096 -120.88027502 79.50401813 -122.25 78.6875 C-122.93191406 78.28337891 -123.61382812 77.87925781 -124.31640625 77.46289062 C-126.22168487 76.32527281 -128.11152201 75.1652141 -130 74 C-131.18529297 73.29810547 -131.18529297 73.29810547 -132.39453125 72.58203125 C-134.78792181 70.2235807 -135.0519061 68.30736214 -135.4375 65 C-135.37890625 61.51953125 -135.37890625 61.51953125 -134 58 C-128.20807846 52.54384203 -119.51994746 47.49822148 -111.5625 46.62109375 C-108.43379839 47.08372188 -106.50331003 48.08570409 -104 50 C-104 50.66 -104 51.32 -104 52 C-103.443125 52.17015625 -102.88625 52.3403125 -102.3125 52.515625 C-96.01280198 54.51620478 -89.87120711 56.67199424 -84.6875 60.875 C-80.48389786 64.19877843 -75.71750803 66.4844502 -71 69 C-69.78805501 69.68111308 -68.57909922 70.36761097 -67.375 71.0625 C-61.01866887 74.71150491 -54.79299126 78.2273505 -48 81 C-47.34 81.33 -46.68 81.66 -46 82 C-46.15662109 81.12988281 -46.15662109 81.12988281 -46.31640625 80.2421875 C-46.59005038 77.60999161 -46.5625634 75.59286162 -46 73 C-44.36962891 71.42675781 -44.36962891 71.42675781 -42.1640625 70.078125 C-41.34591064 69.5732959 -40.52775879 69.0684668 -39.68481445 68.54833984 C-35.10376855 65.90643813 -30.48046724 63.35992197 -25.8125 60.875 C-18.50946385 57.05843188 -18.50946385 57.05843188 -11.57421875 52.6328125 C-9 51 -9 51 -5 51 C-5.02835938 49.72769531 -5.05671875 48.45539063 -5.0859375 47.14453125 C-5.08334313 39.78301758 -4.4411818 32.47029621 -3.828125 25.1394043 C-3.62406707 22.67623872 -3.43289097 20.21227805 -3.2421875 17.74804688 C-3.11276075 16.16920657 -2.98257923 14.59042791 -2.8515625 13.01171875 C-2.79626373 12.28143967 -2.74096497 11.55116058 -2.68399048 10.79875183 C-2.34139552 6.86397763 -1.6941633 3.57748923 0 0 Z " fill="#4598C2" transform="translate(134,26)"/>
<path d="M0 0 C0.63679687 0.36416016 1.27359375 0.72832031 1.9296875 1.10351562 C6.60925752 3.79675752 6.60925752 3.79675752 7.75 4.9375 C8.1640625 7.66796875 8.1640625 7.66796875 8.375 11.125 C8.51808594 12.81689453 8.51808594 12.81689453 8.6640625 14.54296875 C7.43803455 19.09603836 5.45343509 20.05730083 1.50976562 22.4074707 C0.59904297 22.91238037 -0.31167969 23.41729004 -1.25 23.9375 C-2.20197266 24.48172607 -3.15394531 25.02595215 -4.13476562 25.58666992 C-7.34534182 27.39941458 -10.57614586 29.17122017 -13.8125 30.9375 C-16.22075958 32.26069537 -18.62656908 33.58828199 -21.03125 34.91796875 C-21.63626846 35.25249557 -22.24128693 35.5870224 -22.86463928 35.9316864 C-28.90062423 39.27999246 -34.86191109 42.75243614 -40.8125 46.25 C-49.92921422 51.60704361 -59.10283474 56.84120913 -68.39111328 61.89550781 C-69.65031721 62.60135 -70.89356197 63.33630348 -72.12060547 64.09667969 C-78.10444986 67.77433466 -78.10444986 67.77433466 -82.25 66.9375 C-84.78067085 65.64840241 -87.10500064 64.31873119 -89.5 62.8125 C-91.02304815 61.8852369 -92.54790103 60.96093383 -94.07421875 60.0390625 C-94.90228027 59.53793945 -95.7303418 59.03681641 -96.58349609 58.52050781 C-101.43523107 55.64020662 -106.37905493 52.92461107 -111.3125 50.1875 C-120.80822364 44.8991724 -130.25871069 39.54091433 -139.59790039 33.97973633 C-144.32245654 31.17370561 -149.04522647 28.49775969 -153.9765625 26.0703125 C-164.30201279 20.86893096 -164.30201279 20.86893096 -167.25 17.9375 C-168.78403416 13.24817819 -168.53442003 9.66206255 -167.25 4.9375 C-166.59 4.6075 -165.93 4.2775 -165.25 3.9375 C-165.18804443 4.5351416 -165.12608887 5.1327832 -165.06225586 5.74853516 C-163.89762954 8.88711032 -162.19259928 9.43762015 -159.25390625 10.9609375 C-158.21943359 11.5075 -157.18496094 12.0540625 -156.11914062 12.6171875 C-154.48235352 13.45636719 -154.48235352 13.45636719 -152.8125 14.3125 C-150.68763713 15.42225145 -148.56392665 16.53421237 -146.44140625 17.6484375 C-145.3961377 18.1959668 -144.35086914 18.74349609 -143.27392578 19.30761719 C-139.6420462 21.26518445 -136.12085871 23.37171374 -132.59985352 25.52050781 C-128.87538127 27.76641295 -125.06439451 29.84927773 -121.25 31.9375 C-119.86689448 32.69998955 -118.48407885 33.4630052 -117.1015625 34.2265625 C-116.41521729 34.60554688 -115.72887207 34.98453125 -115.02172852 35.375 C-107.5778164 39.49272871 -100.17562244 43.6768724 -92.8125 47.9375 C-92.00184082 48.40623535 -91.19118164 48.8749707 -90.35595703 49.35791016 C-87.26295963 51.1540782 -84.22756521 52.95245652 -81.25 54.9375 C-77.80821839 54.83916338 -75.54643414 53.58115341 -72.734375 51.7578125 C-67.81188736 48.63011627 -62.75896253 45.75281064 -57.6875 42.875 C-56.78064453 42.35873047 -55.87378906 41.84246094 -54.93945312 41.31054688 C-53.18052687 40.30927268 -51.42063925 39.30968489 -49.65966797 38.31201172 C-48.13722749 37.44358822 -46.61986419 36.56614686 -45.10986328 35.67626953 C-40.45287066 32.9375 -40.45287066 32.9375 -38.25 32.9375 C-38.25 32.2775 -38.25 31.6175 -38.25 30.9375 C-39.23033203 30.58558594 -39.23033203 30.58558594 -40.23046875 30.2265625 C-44.18124152 28.53994541 -47.83704258 26.44323525 -51.5625 24.3125 C-52.67334961 23.68214844 -52.67334961 23.68214844 -53.80664062 23.0390625 C-55.62269011 22.00801505 -57.43656533 20.97313954 -59.25 19.9375 C-57.91812391 15.94187172 -56.33092078 15.59226728 -52.66796875 13.609375 C-52.09855057 13.29728088 -51.52913239 12.98518677 -50.94245911 12.66363525 C-49.11216109 11.66268688 -47.27522895 10.6747277 -45.4375 9.6875 C-43.64764314 8.71580104 -41.85927198 7.74142081 -40.07130432 6.76625061 C-38.88575434 6.12000406 -37.6993407 5.4753394 -36.5120697 4.83226013 C-31.51661454 2.11655805 -26.62806066 -0.76195631 -21.76074219 -3.69995117 C-13.44368914 -8.21351331 -7.44084659 -4.31476477 0 0 Z " fill="#0B4E7B" transform="translate(167.25,115.0625)"/>
<path d="M0 0 C4.53227559 1.51075853 7.92028322 2.906326 12 5.1953125 C13.12881592 5.8255835 14.25763184 6.45585449 15.4206543 7.10522461 C16.61385813 7.77832605 17.80697195 8.45158706 19 9.125 C20.21698449 9.8071134 21.43418889 10.48883458 22.65161133 11.17016602 C30.79431853 15.73299419 38.92071556 20.32566353 47 25 C46.68683838 25.82274414 46.37367676 26.64548828 46.05102539 27.49316406 C44.88883511 31.37091115 44.47227479 35.09632125 44.18359375 39.109375 C44.12220718 39.8762262 44.06082062 40.64307739 43.99757385 41.4331665 C43.80380539 43.87161712 43.62032622 46.31070695 43.4375 48.75 C43.24922714 51.16975332 43.05883384 53.58933362 42.86831665 56.00891113 C42.74627382 57.56181694 42.6251427 59.1147947 42.50497437 60.66784668 C42.08061496 66.12097337 41.57805912 71.56073892 41 77 C40.07703125 77.36480469 39.1540625 77.72960937 38.203125 78.10546875 C32.82360548 80.41271494 27.81916487 83.40119997 22.75 86.3125 C20.78693886 87.43443494 18.82339834 88.55553155 16.859375 89.67578125 C15.99795898 90.16989502 15.13654297 90.66400879 14.24902344 91.1730957 C9.52549345 93.82910524 4.75736157 96.40507551 0 99 C0 66.33 0 33.66 0 0 Z " fill="#67BDA5" transform="translate(88,0)"/>
<path d="M0 0 C0 32.67 0 65.34 0 99 C-3.64065179 97.54373928 -6.72926187 96.12241748 -10.09765625 94.20703125 C-11.05921631 93.66224121 -12.02077637 93.11745117 -13.01147461 92.55615234 C-14.52173218 91.69304443 -14.52173218 91.69304443 -16.0625 90.8125 C-17.08931885 90.22678223 -18.1161377 89.64106445 -19.17407227 89.03759766 C-21.20166254 87.88021298 -23.22861852 86.72171626 -25.25488281 85.56201172 C-27.55395481 84.25380622 -29.86146516 82.9651998 -32.1796875 81.69140625 C-33.79230469 80.79228516 -33.79230469 80.79228516 -35.4375 79.875 C-36.34371094 79.37742187 -37.24992187 78.87984375 -38.18359375 78.3671875 C-38.78300781 77.91601562 -39.38242187 77.46484375 -40 77 C-40 76.01 -40 75.02 -40 74 C-38.2277832 72.63183594 -38.2277832 72.63183594 -35.73828125 71.234375 C-34.82385254 70.71294922 -33.90942383 70.19152344 -32.96728516 69.65429688 C-31.98808105 69.10837891 -31.00887695 68.56246094 -30 68 C-28.05568627 66.88073507 -26.11167894 65.76093772 -24.16796875 64.640625 C-22.17526548 63.50903088 -20.18176941 62.37883174 -18.1875 61.25 C-16.6725293 60.38568359 -16.6725293 60.38568359 -15.12695312 59.50390625 C-13.66225586 58.67439453 -13.66225586 58.67439453 -12.16796875 57.828125 C-11.29422607 57.3321582 -10.4204834 56.83619141 -9.52026367 56.32519531 C-7.06177868 55.03248423 -4.59633473 53.98181459 -2 53 C-4.85835254 49.88290103 -7.55879135 47.97240648 -11.33203125 46.08203125 C-12.37174072 45.55375732 -13.4114502 45.0254834 -14.48266602 44.48120117 C-15.58151123 43.93052979 -16.68035645 43.3798584 -17.8125 42.8125 C-27.45570881 37.89947594 -36.84117158 32.76336032 -46 27 C-44.49419662 22.67959417 -41.80451062 21.45803894 -37.8828125 19.35546875 C-37.27041718 19.02259354 -36.65802185 18.68971832 -36.02706909 18.34675598 C-34.06523703 17.28303848 -32.09561489 16.23484175 -30.125 15.1875 C-28.19885421 14.15144499 -26.27446304 13.11220003 -24.3505249 12.072052 C-23.08329888 11.38757132 -21.81494936 10.70516645 -20.54547119 10.02487183 C-15.39400794 7.25334146 -10.37862091 4.29355477 -5.38623047 1.2434082 C-3 0 -3 0 0 0 Z " fill="#8FD9BA" transform="translate(88,0)"/>
<path d="M0 0 C6.07227825 1.7595263 11.21423571 4.71980321 16.65966797 7.84863281 C20.7060314 10.17089356 24.74178356 12.38790173 28.95703125 14.390625 C39.91962254 19.78828387 39.91962254 19.78828387 42.65625 25.390625 C43.22935577 29.80353945 42.97956618 31.99515017 41 36 C34.52147768 42.35777992 25.69481167 46.01140658 16.86987305 47.51660156 C14.12672581 48.22575831 12.82798662 49.91087244 11 52 C9.33675221 52.67515111 7.66942457 53.34026989 6 54 C3.00763342 55.69186939 0.07457953 57.46797608 -2.8671875 59.24609375 C-6.16428352 61.09197419 -9.52680331 62.51641598 -13 64 C-15.26963213 65.21398928 -17.51966333 66.46524386 -19.75 67.75 C-20.65081299 68.26844482 -20.65081299 68.26844482 -21.56982422 68.79736328 C-26.36700987 71.5801628 -31.05259004 74.52068954 -35.6953125 77.5546875 C-39.54284131 79.96754455 -41.3337252 81 -46 81 C-46.77706186 75.99226804 -46.77706186 75.99226804 -46 73 C-44.36962891 71.47558594 -44.36962891 71.47558594 -42.1640625 70.109375 C-41.34591064 69.60003418 -40.52775879 69.09069336 -39.68481445 68.56591797 C-35.11373167 65.89983404 -30.48338796 63.36147678 -25.8125 60.875 C-18.50946385 57.05843188 -18.50946385 57.05843188 -11.57421875 52.6328125 C-9 51 -9 51 -5 51 C-5.02835938 49.72769531 -5.05671875 48.45539063 -5.0859375 47.14453125 C-5.08334313 39.78301758 -4.4411818 32.47029621 -3.828125 25.1394043 C-3.62406707 22.67623872 -3.43289097 20.21227805 -3.2421875 17.74804688 C-3.11276075 16.16920657 -2.98257923 14.59042791 -2.8515625 13.01171875 C-2.76861435 11.91630013 -2.76861435 11.91630013 -2.68399048 10.79875183 C-2.34139552 6.86397763 -1.6941633 3.57748923 0 0 Z " fill="#56AD9C" transform="translate(134,26)"/>
<path d="M0 0 C2.875 1.375 2.875 1.375 5 3 C5 3.66 5 4.32 5 5 C5.556875 5.17015625 6.11375 5.3403125 6.6875 5.515625 C12.98719802 7.51620478 19.12879289 9.67199424 24.3125 13.875 C28.51610214 17.19877843 33.28249197 19.4844502 38 22 C39.21194499 22.68111308 40.42090078 23.36761097 41.625 24.0625 C47.98133113 27.71150491 54.20700874 31.2273505 61 34 C61.66 34.33 62.32 34.66 63 35 C63.02892857 38.95831809 63.04677427 42.91660917 63.0625 46.875 C63.07087891 48.00292969 63.07925781 49.13085938 63.08789062 50.29296875 C63.09111328 51.36933594 63.09433594 52.44570312 63.09765625 53.5546875 C63.10289307 54.54968262 63.10812988 55.54467773 63.11352539 56.56982422 C63 59 63 59 62 61 C57.1607055 59.22170503 52.67584354 56.83852505 48.125 54.4375 C47.28582031 53.99567383 46.44664063 53.55384766 45.58203125 53.09863281 C39.14582304 49.67787117 32.88693406 46.03390737 26.6875 42.203125 C22.83697477 39.85714574 18.87299127 37.73021396 14.90869141 35.58398438 C10.13742 32.9856959 5.41387807 30.30382938 0.6875 27.625 C-0.80438843 26.78062378 -0.80438843 26.78062378 -2.32641602 25.91918945 C-9.89563645 21.6326049 -17.45463916 17.3284479 -25 13 C-25 12.34 -25 11.68 -25 11 C-22.1389207 8.85397871 -18.96925529 7.1625903 -15.875 5.375 C-15.0190625 4.859375 -14.163125 4.34375 -13.28125 3.8125 C-5.24149192 -0.86292855 -5.24149192 -0.86292855 0 0 Z " fill="#63AECD" transform="translate(25,73)"/>
<path d="M0 0 C4.53227559 1.51075853 7.92028322 2.906326 12 5.1953125 C13.12881592 5.8255835 14.25763184 6.45585449 15.4206543 7.10522461 C16.61385813 7.77832605 17.80697195 8.45158706 19 9.125 C20.21698449 9.8071134 21.43418889 10.48883458 22.65161133 11.17016602 C30.79431853 15.73299419 38.92071556 20.32566353 47 25 C43.32315429 28.12966261 39.49966011 30.50270293 35.23046875 32.71484375 C34.27071892 33.22127159 34.27071892 33.22127159 33.2915802 33.7379303 C31.2594868 34.80948773 29.22383333 35.8740251 27.1875 36.9375 C24.51229248 38.33861634 21.83910895 39.74348891 19.16796875 41.15234375 C18.21167068 41.65560684 18.21167068 41.65560684 17.23605347 42.16903687 C13.83712835 43.97255612 10.53454174 45.85672813 7.30078125 47.94140625 C4 50 4 50 0 51 C0 34.17 0 17.34 0 0 Z " fill="#7FCFAF" transform="translate(88,0)"/>
<path d="M0 0 C4.48466884 0.82709901 8.23661462 3.52321865 12.06347656 5.89208984 C12.93810547 6.41673828 13.81273437 6.94138672 14.71386719 7.48193359 C16.8598832 8.77188857 18.99636553 10.07529044 21.12597656 11.39208984 C17.53292036 15.30437789 13.89044451 17.90183028 9.18847656 20.39208984 C4.16354448 23.12395771 -0.80413983 25.92301638 -5.70996094 28.86474609 C-6.7000415 29.45835938 -7.69012207 30.05197266 -8.71020508 30.66357422 C-10.67577391 31.84636587 -12.63856777 33.03378274 -14.59838867 34.22607422 C-15.50016846 34.76683594 -16.40194824 35.30759766 -17.33105469 35.86474609 C-18.13518799 36.35209229 -18.93932129 36.83943848 -19.76782227 37.34155273 C-21.87402344 38.39208984 -21.87402344 38.39208984 -24.87402344 38.39208984 C-24.54402344 37.73208984 -24.21402344 37.07208984 -23.87402344 36.39208984 C-24.70160156 36.14716797 -25.52917969 35.90224609 -26.38183594 35.64990234 C-30.40691099 34.20015495 -34.00630058 32.31978474 -37.74902344 30.26708984 C-38.43738281 29.89455078 -39.12574219 29.52201172 -39.83496094 29.13818359 C-41.51697141 28.22709459 -43.1958278 27.31018669 -44.87402344 26.39208984 C-44.78417969 24.64599609 -44.78417969 24.64599609 -43.87402344 22.39208984 C-41.6913439 20.84911015 -39.65074202 19.58207774 -37.31152344 18.32958984 C-36.67617676 17.97743408 -36.04083008 17.62527832 -35.38623047 17.26245117 C-30.99336355 14.87107794 -26.59246186 13.05228114 -21.87402344 11.39208984 C-19.70369868 9.95218361 -19.70369868 9.95218361 -17.87402344 8.39208984 C-15.3611757 6.78129001 -13.04108269 5.45573146 -10.24902344 4.39208984 C-7.82447251 3.58228232 -7.82447251 3.58228232 -6.49902344 1.76708984 C-4.39678168 -0.01173011 -2.6994882 -0.05359995 0 0 Z " fill="#2E82B1" transform="translate(153.8740234375,72.60791015625)"/>
<path d="M0 0 C4.15459001 1.27498188 7.78410597 2.8357791 11.5625 4.9765625 C12.60067871 5.56147461 13.63885742 6.14638672 14.70849609 6.74902344 C16.33779053 7.67763184 16.33779053 7.67763184 18 8.625 C19.1132666 9.25438477 20.2265332 9.88376953 21.37353516 10.53222656 C24.58527458 12.34973339 27.79300986 14.17413001 31 16 C32.54930174 16.87791735 34.09875485 17.7555677 35.6484375 18.6328125 C44.40331785 23.6022119 44.40331785 23.6022119 48 26 C48.34057617 28.61376953 48.34057617 28.61376953 48.29296875 31.8828125 C48.2784668 33.63271484 48.2784668 33.63271484 48.26367188 35.41796875 C48.23853516 36.64128906 48.21339844 37.86460937 48.1875 39.125 C48.16719727 40.97158203 48.16719727 40.97158203 48.14648438 42.85546875 C48.11103543 45.90407843 48.06162079 48.951825 48 52 C44.49937328 50.6736562 41.29287502 49.13214996 38.04296875 47.27734375 C37.10219482 46.74375244 36.1614209 46.21016113 35.19213867 45.66040039 C33.16024594 44.49528566 31.13051335 43.32639692 29.1027832 42.15405273 C24.46437436 39.48283436 19.86416517 36.87247093 15 34.6328125 C4.77445023 29.82276403 4.77445023 29.82276403 2.65234375 24.828125 C2.10353044 21.16936963 2.01548659 17.69742452 2 14 C1.70799158 11.35706536 1.2896267 8.75362693 0.875 6.125 C0.58333333 4.08333333 0.29166667 2.04166667 0 0 Z " fill="#267CA9" transform="translate(40,119)"/>
<path d="M0 0 C1.15379222 8.19976606 2.20057687 16.34331156 2.75390625 24.609375 C2.92730673 27.14428726 2.92730673 27.14428726 4 30 C4.14573058 31.47965926 4.24663268 32.96403843 4.31640625 34.44921875 C4.35830078 35.29677734 4.40019531 36.14433594 4.44335938 37.01757812 C4.48267578 37.89865234 4.52199219 38.77972656 4.5625 39.6875 C4.60568359 40.58017578 4.64886719 41.47285156 4.69335938 42.39257812 C4.79935353 44.59490108 4.90142051 46.79733473 5 49 C0.27514448 47.49994097 -3.75365727 45.51990359 -8 43 C-9.4138014 42.20322767 -10.83064805 41.41184217 -12.25 40.625 C-13.39275391 39.98884766 -13.39275391 39.98884766 -14.55859375 39.33984375 C-16.23067738 38.42220426 -17.91086755 37.5192263 -19.59765625 36.62890625 C-26.72534715 32.84456389 -33.35144948 28.57160367 -40 24 C-38.75328922 20.25986767 -37.74665974 20.0050915 -34.36328125 18.14453125 C-33.3993042 17.60787842 -32.43532715 17.07122559 -31.44213867 16.51831055 C-30.40935791 15.95539307 -29.37657715 15.39247559 -28.3125 14.8125 C-26.21072432 13.64882245 -24.10916143 12.48476049 -22.0078125 11.3203125 C-20.98075195 10.75473633 -19.95369141 10.18916016 -18.89550781 9.60644531 C-14.03631471 6.91053548 -9.24539667 4.09893533 -4.44921875 1.29296875 C-2 0 -2 0 0 0 Z " fill="#95DCBE" transform="translate(41,26)"/>
<path d="M0 0 C0.22494141 0.5976416 0.44988281 1.1952832 0.68164062 1.81103516 C2.40066995 4.66526051 4.1496262 5.48872383 7.09375 7.0234375 C8.640625 7.84328125 8.640625 7.84328125 10.21875 8.6796875 C11.3015625 9.23914063 12.384375 9.79859375 13.5 10.375 C15.61576075 11.48473726 17.73035682 12.59669803 19.84375 13.7109375 C20.88273437 14.2584668 21.92171875 14.80599609 22.9921875 15.37011719 C26.61427357 17.33286448 30.13144784 19.4384721 33.64794922 21.58300781 C37.37385645 23.82767935 41.18507397 25.91148674 45 28 C46.38310552 28.76248955 47.76592115 29.5255052 49.1484375 30.2890625 C49.83462158 30.66796631 50.52080566 31.04687012 51.2277832 31.43725586 C60.92228017 36.79981728 70.56669042 42.25299584 80.09741211 47.90258789 C81.70433775 48.8294621 83.35993117 49.6711805 85.0234375 50.4921875 C87 52 87 52 87.48828125 54.48046875 C87.43027344 55.37378906 87.37226562 56.26710937 87.3125 57.1875 C87.26738281 58.08855469 87.22226563 58.98960937 87.17578125 59.91796875 C87.11777344 60.60503906 87.05976562 61.29210937 87 62 C82.50860977 61.45773567 79.28335366 60.33072583 75.3515625 58.11328125 C74.27656494 57.51201416 73.20156738 56.91074707 72.09399414 56.29125977 C70.94922607 55.63826904 69.80445801 54.98527832 68.625 54.3125 C67.4136547 53.62955085 66.20197946 52.94718662 64.98999023 52.26538086 C56.33774121 47.38467448 47.74538317 42.39985243 39.17944336 37.36938477 C29.83280073 31.88072795 20.42097865 26.50924228 10.99829102 21.15258789 C9.30337524 20.18760376 9.30337524 20.18760376 7.57421875 19.203125 C6.56963623 18.63239258 5.56505371 18.06166016 4.5300293 17.47363281 C2.6490112 16.378021 0.81123309 15.20748873 -1 14 C-1.328125 10.99609375 -1.328125 10.99609375 -1.25 7.4375 C-1.22679688 5.67212891 -1.22679688 5.67212891 -1.203125 3.87109375 C-1 1 -1 1 0 0 Z " fill="#106995" transform="translate(1,119)"/>
<path d="M0 0 C4.35560379 1.59066983 8.30159797 3.76396349 12.3125 6.0625 C13.72766087 6.86884721 15.14303203 7.67482545 16.55859375 8.48046875 C17.28546387 8.89474121 18.01233398 9.30901367 18.76123047 9.73583984 C21.00940168 11.00530882 23.26962655 12.25009173 25.53515625 13.48828125 C26.2624292 13.88845459 26.98970215 14.28862793 27.73901367 14.70092773 C29.13854584 15.47019853 30.54096885 16.23423859 31.9465332 16.99243164 C35.15646615 18.76774857 36.92876441 19.89314662 39 23 C29.89563095 29.11830306 20.32143237 34.31697121 10.68310547 39.53369141 C6.77715835 41.66827907 2.88920959 43.8351024 -1 46 C-1.02527062 39.60962769 -1.04283317 33.21926817 -1.05493164 26.82885742 C-1.05997308 24.65307127 -1.06680607 22.47728853 -1.07543945 20.30151367 C-1.08751338 17.18146933 -1.09323005 14.06146962 -1.09765625 10.94140625 C-1.10281754 9.96224747 -1.10797882 8.98308868 -1.11329651 7.97425842 C-1.11337204 7.07340012 -1.11344757 6.17254181 -1.11352539 5.24438477 C-1.115746 4.44718521 -1.11796661 3.64998566 -1.12025452 2.82862854 C-1 1 -1 1 0 0 Z " fill="#77C8AA" transform="translate(89,53)"/>
<path d="M0 0 C0.47308594 0.37511719 0.94617187 0.75023437 1.43359375 1.13671875 C6.39200029 4.97392615 11.46856458 8.06842888 17 11 C18.79256522 11.97752071 20.58419411 12.95675993 22.375 13.9375 C25.20903224 15.4855008 28.04632216 17.02459694 30.8984375 18.5390625 C31.83945312 19.04179688 32.78046875 19.54453125 33.75 20.0625 C34.59046875 20.50722656 35.4309375 20.95195313 36.296875 21.41015625 C38.44657853 22.674505 40.36878801 23.97715543 42.3671875 25.453125 C45.8596236 27.98873577 49.48038976 29.85205245 53.375 31.6875 C61.57339343 35.66332894 69.3513445 40.2316768 77.16308594 44.91064453 C80.72911971 47.02542958 84.36070655 49.01493084 88 51 C88 53.97 88 56.94 88 60 C77.93119794 56.97935938 68.85989283 52.4877338 60.21875 46.5078125 C56.26037623 43.81779089 52.12413932 41.42474523 48 39 C47.40574219 38.64035156 46.81148437 38.28070313 46.19921875 37.91015625 C41.78618962 35.28761626 37.17389295 33.25703541 32.453125 31.24609375 C30 30 30 30 28.46875 28.44921875 C26.54995346 26.55593812 24.82447109 26.14734133 22.25 25.375 C14.95630857 22.8818481 5.53341293 18.53341293 0 13 C-0.07258946 10.81360547 -0.08373783 8.62499611 -0.0625 6.4375 C-0.05347656 5.23996094 -0.04445312 4.04242188 -0.03515625 2.80859375 C-0.02355469 1.88175781 -0.01195312 0.95492187 0 0 Z " fill="#6AC2A7" transform="translate(0,48)"/>
<path d="M0 0 C1.17482692 4.03894745 1.40891357 6.99969183 0 11 C-6.41981838 17.19553627 -15.44351247 21.06179482 -24.13012695 22.52319336 C-26.87676849 23.22357081 -28.17178987 24.910617 -30 27 C-31.66324779 27.67515111 -33.33057543 28.34026989 -35 29 C-37.99236658 30.69186939 -40.92542047 32.46797608 -43.8671875 34.24609375 C-47.16428352 36.09197419 -50.52680331 37.51641598 -54 39 C-56.26963213 40.21398928 -58.51966333 41.46524386 -60.75 42.75 C-61.35054199 43.09562988 -61.95108398 43.44125977 -62.56982422 43.79736328 C-67.36700987 46.5801628 -72.05259004 49.52068954 -76.6953125 52.5546875 C-80.54284131 54.96754455 -82.3337252 56 -87 56 C-87.77706186 50.99226804 -87.77706186 50.99226804 -87 48 C-85.36962891 46.47558594 -85.36962891 46.47558594 -83.1640625 45.109375 C-82.34591064 44.60003418 -81.52775879 44.09069336 -80.68481445 43.56591797 C-76.11373167 40.89983404 -71.48338796 38.36147678 -66.8125 35.875 C-59.5660074 32.08345322 -59.5660074 32.08345322 -52.63671875 27.7578125 C-50.12489819 26.08326546 -47.80818501 25.06628301 -45 24 C-43.58520787 23.19927635 -42.19007568 22.36318039 -40.8125 21.5 C-35.94906511 18.52506531 -30.99177283 15.7512496 -26 13 C-20.24582401 9.82593565 -14.54071187 6.60574352 -8.9453125 3.15625 C-3.63513514 0 -3.63513514 0 0 0 Z " fill="#4CA595" transform="translate(175,51)"/>
<path d="M0 0 C2.81640625 1.171875 2.81640625 1.171875 5.5625 2.75 C6.47128906 3.26046875 7.38007812 3.7709375 8.31640625 4.296875 C15.71168515 8.99023978 15.71168515 8.99023978 16.85546875 12.99609375 C16.96503906 14.13175781 17.07460938 15.26742187 17.1875 16.4375 C17.39052734 18.28021484 17.39052734 18.28021484 17.59765625 20.16015625 C17.73042969 21.42730469 17.86320312 22.69445312 18 24 C18.36086569 26.46044787 18.73494684 28.91901012 19.125 31.375 C19.37636719 32.99535156 19.37636719 32.99535156 19.6328125 34.6484375 C19.75398438 35.42445313 19.87515625 36.20046875 20 37 C16.59002158 35.70009688 13.43414549 34.21717367 10.25 32.4375 C6.07903382 30.12907623 1.88333252 27.87907184 -2.33886719 25.66650391 C-22.4389325 15.12213499 -22.4389325 15.12213499 -24 12 C-20.80631197 8.47264307 -17.21914427 6.09696168 -13.125 3.75 C-12.52558594 3.38648437 -11.92617187 3.02296875 -11.30859375 2.6484375 C-7.36150244 0.37094013 -4.53433839 -0.63468532 0 0 Z " fill="#3D8CB1" transform="translate(25,109)"/>
<path d="M0 0 C2.875 1.375 2.875 1.375 5 3 C5 3.66 5 4.32 5 5 C5.62648438 5.13535156 6.25296875 5.27070312 6.8984375 5.41015625 C9.42877693 6.07666522 11.6642064 6.81710269 14 8 C15.38913392 10.71787072 15.67232231 12.05090079 16 15 C16.17917969 16.09699219 16.35835937 17.19398437 16.54296875 18.32421875 C17.48579003 24.27854645 18.10781488 29.96236671 18 36 C11.78933905 34.34242495 6.52361492 31.06016333 1 27.875 C-0.01715088 27.29403564 -1.03430176 26.71307129 -2.08227539 26.11450195 C-5.0574528 24.41416458 -8.02880957 22.70729134 -11 21 C-12.53993689 20.1203446 -14.0802521 19.24135086 -15.62109375 18.36328125 C-18.75000119 16.58004965 -21.87612251 14.79203371 -25 13 C-25 12.34 -25 11.68 -25 11 C-22.1389207 8.85397871 -18.96925529 7.1625903 -15.875 5.375 C-15.0190625 4.859375 -14.163125 4.34375 -13.28125 3.8125 C-5.24149192 -0.86292855 -5.24149192 -0.86292855 0 0 Z " fill="#6DB7D4" transform="translate(25,73)"/>
<path d="M0 0 C0.33 0.66 0.66 1.32 1 2 C2.66135703 2.67979045 4.32970626 3.34247354 6 4 C8.80956686 5.4734234 11.55883098 7.05006866 14.3125 8.625 C15.05306641 9.04523438 15.79363281 9.46546875 16.55664062 9.8984375 C18.37269011 10.92948495 20.18656533 11.96436046 22 13 C22 13.66 22 14.32 22 15 C20.92105469 15.59425781 19.84210938 16.18851563 18.73046875 16.80078125 C9.49115919 21.90436022 0.30978435 27.09421536 -8.80395508 32.41918945 C-9.55700928 32.85835693 -10.31006348 33.29752441 -11.0859375 33.75 C-11.7464209 34.13671875 -12.4069043 34.5234375 -13.08740234 34.921875 C-15.02849249 36.01606112 -16.99899706 37.0203713 -19 38 C-20.90063695 14.37118397 -20.90063695 14.37118397 -17.91894531 9.08251953 C-14.83802215 6.11606804 -11.02886364 5.09788985 -7 4 C-3.24317348 2.39379762 -3.24317348 2.39379762 0 0 Z " fill="#0C6494" transform="translate(107,133)"/>
<path d="M0 0 C4.32131396 1.15937692 7.37829491 2.88196572 10.93359375 5.5703125 C14.29180428 7.89376251 17.92331952 9.69780478 21.546875 11.5703125 C23.79211179 12.87884222 25.22638908 14.14214578 27 16 C23.92853079 17.87438149 20.84116475 19.72081186 17.75 21.5625 C16.87730469 22.09552734 16.00460938 22.62855469 15.10546875 23.17773438 C13.83896484 23.92700195 13.83896484 23.92700195 12.546875 24.69140625 C11.77182617 25.15748291 10.99677734 25.62355957 10.19824219 26.10375977 C7.64239346 27.14579893 6.54167161 26.95439263 4 26 C3.91435791 25.42556152 3.82871582 24.85112305 3.74047852 24.25927734 C3.34834457 21.63110617 2.95542857 19.00305248 2.5625 16.375 C2.42779297 15.47136719 2.29308594 14.56773438 2.15429688 13.63671875 C1.47310556 9.08436703 0.77632452 4.53735301 0 0 Z " fill="#509FC5" transform="translate(39,82)"/>
<path d="M0 0 C-3.28001703 2.59551348 -6.74304716 4.65345085 -10.375 6.72265625 C-11.28451416 7.24187904 -11.28451416 7.24187904 -12.21240234 7.77159119 C-13.48918534 8.499795 -14.76670671 9.22670559 -16.04492188 9.95239258 C-17.99516229 11.05975311 -19.94307259 12.17112319 -21.890625 13.28320312 C-32.22406921 19.17132132 -32.22406921 19.17132132 -36 21 C-36 17 -36 17 -34.9375 15.4375 C-30.85741932 12.41034337 -27.05752467 11 -22 11 C-22 10.34 -22 9.68 -22 9 C-20.58671871 8.18162558 -19.16921654 7.37053781 -17.75 6.5625 C-16.96109375 6.11003906 -16.1721875 5.65757812 -15.359375 5.19140625 C-13.21166532 4.10688398 -11.34794939 3.46851284 -9 3 C-9 2.34 -9 1.68 -9 1 C-5.92677456 0.08941469 -3.19902639 -0.08886184 0 0 Z " fill="#123F5A" transform="translate(152,146)"/>
<path d="M0 0 C0.33 0 0.66 0 1 0 C1 4.29 1 8.58 1 13 C-1.55303715 14.5390224 -4.11539935 16.05595193 -6.6875 17.5625 C-7.40873047 18.00013672 -8.12996094 18.43777344 -8.87304688 18.88867188 C-14.3241843 22.04983376 -14.3241843 22.04983376 -18.01953125 21.77734375 C-18.67308594 21.52082031 -19.32664063 21.26429687 -20 21 C-16.98266558 18.62313751 -13.86886696 16.71677067 -10.5 14.875 C-9.09234375 14.09769531 -9.09234375 14.09769531 -7.65625 13.3046875 C-5.39042158 12.19176589 -3.46297513 11.47633009 -1 11 C-1.020625 9.9275 -1.04125 8.855 -1.0625 7.75 C-1.0142016 4.85209576 -0.86844115 2.71387859 0 0 Z " fill="#2F758D" transform="translate(174,85)"/>
<path d="M0 0 C0.66 0 1.32 0 2 0 C2 1.32 2 2.64 2 4 C0.23628182 5.03307771 -1.53625033 6.05112049 -3.3125 7.0625 C-4.79169922 7.91521484 -4.79169922 7.91521484 -6.30078125 8.78515625 C-9 10 -9 10 -12 9 C-9.0098979 5.66488612 -6.10501426 3.78478881 -2 2 C-1.34 2 -0.68 2 0 2 C0 1.34 0 0.68 0 0 Z " fill="#569283" transform="translate(167,62)"/>
<path d="M0 0 C-2.9905167 3.33557632 -5.93184627 5.15083921 -10 7 C-10.33 6.01 -10.66 5.02 -11 4 C-7.35237315 0.18657193 -5.28949249 -0.11498897 0 0 Z " fill="#11405F" transform="translate(168,136)"/>
<path d="M0 0 C3.29680965 0.65784963 5.84117922 1.89420573 8.75 3.5625 C9.94882813 4.24505859 9.94882813 4.24505859 11.171875 4.94140625 C11.77515625 5.29074219 12.3784375 5.64007813 13 6 C12.67 7.32 12.34 8.64 12 10 C12 9.01 12 8.02 12 7 C10.35 7 8.7 7 7 7 C7 6.01 7 5.02 7 4 C5.02 4 3.04 4 1 4 C0.67 2.68 0.34 1.36 0 0 Z " fill="#1D5876" transform="translate(161,113)"/>
<path d="M0 0 C3.09415757 0.42656082 6.05880129 0.92998438 9 2 C10.5625 4.625 10.5625 4.625 11 7 C6.96678237 5.78065514 3.45730521 4.44045073 0 2 C0 1.34 0 0.68 0 0 Z " fill="#145F81" transform="translate(59,165)"/>
<path d="M0 0 C0.33 0.99 0.66 1.98 1 3 C-3.455 5.97 -3.455 5.97 -8 9 C-8.33 7.68 -8.66 6.36 -9 5 C-6.03 3.35 -3.06 1.7 0 0 Z " fill="#1A4461" transform="translate(139,150)"/>
<path d="M0 0 C0.66 0.66 1.32 1.32 2 2 C-2.33664919 5.11696661 -5.80408388 5.55966813 -11 6 C-8.7991151 3.52140092 -6.93627031 2.38789634 -3.8125 1.3125 C-3.09707031 1.06113281 -2.38164062 0.80976563 -1.64453125 0.55078125 C-1.10183594 0.36902344 -0.55914062 0.18726563 0 0 Z " fill="#154C6B" transform="translate(156,141)"/>
<path d="M0 0 C0.33 0 0.66 0 1 0 C1.13496251 2.10241603 1.23197307 4.2072961 1.3125 6.3125 C1.39951172 8.07013672 1.39951172 8.07013672 1.48828125 9.86328125 C1 13 1 13 -1.51953125 14.91796875 C-2.33808594 15.27503906 -3.15664062 15.63210937 -4 16 C-4.33 15.34 -4.66 14.68 -5 14 C-4.34 14 -3.68 14 -3 14 C-2.7834375 13.0409375 -2.7834375 13.0409375 -2.5625 12.0625 C-2 10 -2 10 -1 9 C-0.76807135 7.48530552 -0.58784762 5.96245438 -0.4375 4.4375 C-0.35371094 3.61121094 -0.26992187 2.78492187 -0.18359375 1.93359375 C-0.12300781 1.29550781 -0.06242188 0.65742187 0 0 Z " fill="#154360" transform="translate(174,120)"/>
<path d="M0 0 C0 0.66 0 1.32 0 2 C-6.75 6 -6.75 6 -9 6 C-9 3 -9 3 -7.875 1.3125 C-5.23540902 -0.53521368 -3.14195927 -0.20946395 0 0 Z " fill="#0E415A" transform="translate(113,167)"/>
<path d="M0 0 C0.33 0 0.66 0 1 0 C1 2.97 1 5.94 1 9 C-3.87362847 8.54663921 -6.39042389 7.2910841 -10 4 C-5.78087253 4.4794463 -3.20336822 5.16625119 0 8 C0 5.36 0 2.72 0 0 Z " fill="#125D83" transform="translate(87,172)"/>
<path d="M0 0 C5.96652354 1.57013777 10.82909025 4.75029782 16 8 C15.01 8.495 15.01 8.495 14 9 C11.25 7.890625 11.25 7.890625 8 6.25 C6.9275 5.71890625 5.855 5.1878125 4.75 4.640625 C2 3 2 3 0 0 Z " fill="#66B8B9" transform="translate(65,96)"/>
<path d="M0 0 C0.66 0 1.32 0 2 0 C2 3.63 2 7.26 2 11 C0.35 10.67 -1.3 10.34 -3 10 C-2.01 9.67 -1.02 9.34 0 9 C0 6.03 0 3.06 0 0 Z " fill="#549C91" transform="translate(173,51)"/>
<path d="M0 0 C3.94727588 -0.17942163 6.5980513 -0.09350689 10 2 C9.67 3.32 9.34 4.64 9 6 C6.03 4.35 3.06 2.7 0 1 C0 0.67 0 0.34 0 0 Z " fill="#105078" transform="translate(8,137)"/>
<path d="M0 0 C1.98 0 3.96 0 6 0 C6.33 0.99 6.66 1.98 7 3 C7.99 3 8.98 3 10 3 C10.33 3.99 10.66 4.98 11 6 C6.49197399 4.74194623 3.5087188 3.09592835 0 0 Z " fill="#0E577C" transform="translate(24,146)"/>
<path d="M0 0 C3.77545388 1.09068668 6.47043472 1.9083091 9 5 C5.625 5.125 5.625 5.125 2 5 C1.34 4.34 0.68 3.68 0 3 C0 2.01 0 1.02 0 0 Z " fill="#51A6BC" transform="translate(39,82)"/>
<path d="M0 0 C3.90342873 0.26022858 5.70891546 0.853994 8.75 3.25 C8.75 3.91 8.75 4.57 8.75 5.25 C7.863125 4.940625 6.97625 4.63125 6.0625 4.3125 C3.280235 3.42007538 0.60943764 2.80600176 -2.25 2.25 C-2.91 1.92 -3.57 1.59 -4.25 1.25 C-3.25 0.25 -3.25 0.25 0 0 Z " fill="#458EAC" transform="translate(152.25,72.75)"/>
<path d="M0 0 C0 0.66 0 1.32 0 2 C-3.85756507 4.15305957 -6.55129785 5.39253254 -11 5 C-7.29318258 1.89428811 -4.9778821 0 0 0 Z " fill="#133D4F" transform="translate(96,177)"/>
<path d="M0 0 C0 1.32 0 2.64 0 4 C-1.65 4.33 -3.3 4.66 -5 5 C-4.625 3.0625 -4.625 3.0625 -4 1 C-2 0 -2 0 0 0 Z " fill="#154C6D" transform="translate(104,170)"/>
</svg>
